<svg xmlns="http://www.w3.org/2000/svg" xmlns:xlink="http://www.w3.org/1999/xlink" width="500" zoomAndPan="magnify" viewBox="0 0 375 374.999991" height="500" preserveAspectRatio="xMidYMid meet" version="1.0"><defs><g/><clipPath id="e0434f4a57"><path d="M 38 134 L 194.808594 134 L 194.808594 242 L 38 242 Z M 38 134 " clip-rule="nonzero"/></clipPath><clipPath id="2af71cc35e"><path d="M 8.058594 119.890625 L 91 119.890625 L 91 256.285156 L 8.058594 256.285156 Z M 8.058594 119.890625 " clip-rule="nonzero"/></clipPath><clipPath id="94e9ef7b51"><path d="M 322 147 L 355 147 L 355 180 L 322 180 Z M 322 147 " clip-rule="nonzero"/></clipPath><clipPath id="b3dd693577"><path d="M 315.695312 152.6875 L 338.378906 131.722656 L 369.445312 165.332031 L 346.757812 186.296875 Z M 315.695312 152.6875 " clip-rule="nonzero"/></clipPath><clipPath id="00a296c146"><path d="M 315.695312 152.6875 L 338.378906 131.722656 L 369.445312 165.332031 L 346.757812 186.296875 Z M 315.695312 152.6875 " clip-rule="nonzero"/></clipPath><clipPath id="839fcd2ad1"><path d="M 338 132 L 371 132 L 371 165 L 338 165 Z M 338 132 " clip-rule="nonzero"/></clipPath><clipPath id="87de233dbc"><path d="M 331.972656 137.644531 L 354.660156 116.675781 L 385.722656 150.285156 L 363.035156 171.253906 Z M 331.972656 137.644531 " clip-rule="nonzero"/></clipPath><clipPath id="c5a11215cf"><path d="M 331.972656 137.644531 L 354.660156 116.675781 L 385.722656 150.285156 L 363.035156 171.253906 Z M 331.972656 137.644531 " clip-rule="nonzero"/></clipPath><clipPath id="d36215c604"><path d="M 268 179 L 294 179 L 294 202.988281 L 268 202.988281 Z M 268 179 " clip-rule="nonzero"/></clipPath><clipPath id="db8964da27"><path d="M 276 191 L 293 191 L 293 202.988281 L 276 202.988281 Z M 276 191 " clip-rule="nonzero"/></clipPath></defs><path fill="#3871c1" d="M 93.609375 223.03125 C 92.917969 223.070312 92.21875 223.097656 91.519531 223.097656 C 72.179688 223.097656 56.5 207.421875 56.5 188.082031 C 56.5 168.742188 72.179688 153.0625 91.519531 153.0625 C 92.21875 153.0625 92.917969 153.089844 93.609375 153.128906 C 75.25 154.21875 60.695312 169.445312 60.695312 188.082031 C 60.695312 206.714844 75.25 221.941406 93.609375 223.03125 " fill-opacity="1" fill-rule="nonzero"/><g clip-path="url(#e0434f4a57)"><path fill="#545454" d="M 120.472656 157.863281 C 113.082031 150.957031 103.164062 146.726562 92.253906 146.726562 C 69.785156 146.726562 51.503906 164.644531 50.917969 186.972656 C 50.90625 187.339844 50.902344 187.710938 50.902344 188.078125 C 50.902344 210.917969 69.414062 229.433594 92.253906 229.433594 C 103.164062 229.433594 113.082031 225.203125 120.472656 218.300781 L 160.148438 218.300781 L 132.792969 222.964844 C 122.984375 234.355469 108.460938 241.5625 92.253906 241.5625 C 62.714844 241.5625 38.769531 217.617188 38.769531 188.078125 C 38.769531 158.542969 62.714844 134.597656 92.253906 134.597656 C 108.460938 134.597656 122.984375 141.808594 132.792969 153.195312 L 194.5625 157.863281 L 120.472656 157.863281 " fill-opacity="1" fill-rule="nonzero"/></g><path fill="#07416b" d="M 130.917969 229.167969 C 126.910156 234.480469 122.148438 239.191406 116.785156 243.136719 C 116.625 243.070312 116.46875 243 116.308594 242.921875 L 112.070312 240.90625 C 119.023438 238.300781 125.4375 234.328125 130.917969 229.167969 " fill-opacity="1" fill-rule="nonzero"/><g clip-path="url(#2af71cc35e)"><path fill="#07416b" d="M 35.828125 188.082031 C 35.828125 218.664062 60.289062 243.640625 90.671875 244.480469 L 86.894531 255.105469 C 86.832031 255.277344 86.761719 255.4375 86.695312 255.605469 C 83.324219 256.117188 79.875 256.382812 76.363281 256.382812 C 72.847656 256.382812 69.398438 256.117188 66.03125 255.605469 C 65.960938 255.4375 65.890625 255.277344 65.832031 255.105469 L 62.019531 244.390625 C 59.800781 238.148438 52.671875 235.195312 46.6875 238.039062 L 36.414062 242.921875 C 36.253906 243 36.097656 243.070312 35.9375 243.136719 C 30.351562 239.027344 25.414062 234.089844 21.304688 228.503906 C 21.375 228.347656 21.445312 228.1875 21.519531 228.027344 L 26.402344 217.753906 C 29.246094 211.769531 26.292969 204.644531 20.054688 202.425781 L 9.335938 198.613281 C 9.164062 198.550781 9.003906 198.480469 8.835938 198.414062 C 8.324219 195.042969 8.058594 191.59375 8.058594 188.082031 C 8.058594 184.566406 8.324219 181.117188 8.835938 177.75 C 9.003906 177.683594 9.164062 177.609375 9.335938 177.546875 L 20.054688 173.738281 C 26.292969 171.519531 29.246094 164.390625 26.402344 158.40625 L 21.519531 148.132812 C 21.445312 147.972656 21.375 147.816406 21.304688 147.65625 C 25.414062 142.070312 30.351562 137.132812 35.9375 133.027344 C 36.097656 133.09375 36.253906 133.164062 36.414062 133.238281 L 46.6875 138.125 C 52.671875 140.964844 59.800781 138.011719 62.019531 131.773438 L 65.832031 121.054688 C 65.890625 120.882812 65.960938 120.722656 66.03125 120.554688 C 69.398438 120.046875 72.847656 119.777344 76.363281 119.777344 C 79.875 119.777344 83.324219 120.046875 86.695312 120.554688 C 86.761719 120.722656 86.832031 120.882812 86.894531 121.054688 L 90.671875 131.679688 C 60.289062 132.519531 35.828125 157.496094 35.828125 188.082031 " fill-opacity="1" fill-rule="nonzero"/></g><path fill="#07416b" d="M 112.070312 135.253906 L 116.308594 133.238281 C 116.46875 133.164062 116.625 133.09375 116.785156 133.027344 C 122.144531 136.96875 126.90625 141.675781 130.914062 146.984375 C 125.433594 141.832031 119.019531 137.859375 112.070312 135.253906 " fill-opacity="1" fill-rule="nonzero"/><g fill="#07416b" fill-opacity="1"><g transform="translate(77.373302, 203.12779)"><g><path d="M 19.859375 0 L 1.53125 0 L 1.53125 -7.125 L 6.109375 -7.125 L 6.109375 -28.5 L 1.53125 -28.5 L 1.53125 -35.640625 L 19.859375 -35.640625 L 19.859375 -28.5 L 15.265625 -28.5 L 15.265625 -7.125 L 19.859375 -7.125 Z M 19.859375 0 "/></g></g></g><g fill="#07416b" fill-opacity="1"><g transform="translate(98.75686, 203.12779)"><g><path d="M 34.109375 0 L 24.4375 0 L 12.21875 -21.375 L 12.21875 0 L 3.046875 0 L 3.046875 -35.640625 L 12.71875 -35.640625 L 24.9375 -14.25 L 24.9375 -35.640625 L 34.109375 -35.640625 Z M 34.109375 0 "/></g></g></g><g fill="#07416b" fill-opacity="1"><g transform="translate(135.923523, 203.12779)"><g><path d="M 20.359375 0 L 11.203125 0 L 11.203125 -28.5 L 0.515625 -28.5 L 0.515625 -35.640625 L 31.046875 -35.640625 L 31.046875 -28.5 L 20.359375 -28.5 Z M 20.359375 0 "/></g></g></g><g fill="#07416b" fill-opacity="1"><g transform="translate(167.489732, 203.12779)"><g><path d="M 31.3125 0 L 3.046875 0 L 3.046875 -35.640625 L 31.3125 -35.640625 L 31.3125 -28.5 L 12.21875 -28.5 L 12.21875 -21.640625 L 27.234375 -21.640625 L 27.234375 -14.515625 L 12.21875 -14.515625 L 12.21875 -7.125 L 31.3125 -7.125 Z M 31.3125 0 "/></g></g></g><g fill="#07416b" fill-opacity="1"><g transform="translate(199.819634, 203.12779)"><g><path d="M 12.21875 -7.125 L 30.796875 -7.125 L 30.796875 0 L 3.046875 0 L 3.046875 -35.640625 L 12.21875 -35.640625 Z M 12.21875 -7.125 "/></g></g></g><g fill="#07416b" fill-opacity="1"><g transform="translate(231.131279, 203.12779)"><g><path d="M 19.859375 0 L 1.53125 0 L 1.53125 -7.125 L 6.109375 -7.125 L 6.109375 -28.5 L 1.53125 -28.5 L 1.53125 -35.640625 L 19.859375 -35.640625 L 19.859375 -28.5 L 15.265625 -28.5 L 15.265625 -7.125 L 19.859375 -7.125 Z M 19.859375 0 "/></g></g></g><g fill="#07416b" fill-opacity="1"><g transform="translate(252.515463, 203.12779)"><g/></g></g><g fill="#07416b" fill-opacity="1"><g transform="translate(267.789439, 203.12779)"><g/></g></g><g fill="#07416b" fill-opacity="1"><g transform="translate(283.063415, 203.12779)"><g/></g></g><g fill="#07416b" fill-opacity="1"><g transform="translate(298.345859, 203.12779)"><g><path d="M 34.109375 0 L 24.4375 0 L 12.21875 -21.375 L 12.21875 0 L 3.046875 0 L 3.046875 -35.640625 L 12.71875 -35.640625 L 24.9375 -14.25 L 24.9375 -35.640625 L 34.109375 -35.640625 Z M 34.109375 0 "/></g></g></g><g fill="#07416b" fill-opacity="1"><g transform="translate(161.662583, 220.82897)"><g><path d="M 6.375 -1.328125 L 6.375 0 L 0.84375 0 L 0.84375 -7.140625 L 6.25 -7.140625 L 6.25 -5.8125 L 2.484375 -5.8125 L 2.484375 -4.265625 L 5.8125 -4.265625 L 5.8125 -2.984375 L 2.484375 -2.984375 L 2.484375 -1.328125 Z M 6.375 -1.328125 "/></g></g></g><g fill="#07416b" fill-opacity="1"><g transform="translate(170.25353, 220.82897)"><g><path d="M 7.34375 0 L 7.34375 -4.28125 L 5.234375 -0.75 L 4.484375 -0.75 L 2.390625 -4.1875 L 2.390625 0 L 0.84375 0 L 0.84375 -7.140625 L 2.21875 -7.140625 L 4.890625 -2.703125 L 7.515625 -7.140625 L 8.875 -7.140625 L 8.890625 0 Z M 7.34375 0 "/></g></g></g><g fill="#07416b" fill-opacity="1"><g transform="translate(181.742136, 220.82897)"><g><path d="M 3.9375 -7.140625 C 4.570312 -7.140625 5.117188 -7.035156 5.578125 -6.828125 C 6.046875 -6.617188 6.40625 -6.316406 6.65625 -5.921875 C 6.914062 -5.535156 7.046875 -5.078125 7.046875 -4.546875 C 7.046875 -4.023438 6.914062 -3.566406 6.65625 -3.171875 C 6.40625 -2.785156 6.046875 -2.488281 5.578125 -2.28125 C 5.117188 -2.070312 4.570312 -1.96875 3.9375 -1.96875 L 2.5 -1.96875 L 2.5 0 L 0.84375 0 L 0.84375 -7.140625 Z M 3.84375 -3.3125 C 4.34375 -3.3125 4.71875 -3.414062 4.96875 -3.625 C 5.226562 -3.84375 5.359375 -4.148438 5.359375 -4.546875 C 5.359375 -4.953125 5.226562 -5.257812 4.96875 -5.46875 C 4.71875 -5.6875 4.34375 -5.796875 3.84375 -5.796875 L 2.5 -5.796875 L 2.5 -3.3125 Z M 3.84375 -3.3125 "/></g></g></g><g fill="#07416b" fill-opacity="1"><g transform="translate(190.955458, 220.82897)"><g><path d="M 4.3125 0.125 C 3.5625 0.125 2.890625 -0.0351562 2.296875 -0.359375 C 1.703125 -0.679688 1.234375 -1.117188 0.890625 -1.671875 C 0.554688 -2.234375 0.390625 -2.867188 0.390625 -3.578125 C 0.390625 -4.273438 0.554688 -4.90625 0.890625 -5.46875 C 1.234375 -6.03125 1.703125 -6.46875 2.296875 -6.78125 C 2.890625 -7.101562 3.5625 -7.265625 4.3125 -7.265625 C 5.050781 -7.265625 5.710938 -7.101562 6.296875 -6.78125 C 6.890625 -6.46875 7.359375 -6.03125 7.703125 -5.46875 C 8.046875 -4.90625 8.21875 -4.273438 8.21875 -3.578125 C 8.21875 -2.867188 8.046875 -2.234375 7.703125 -1.671875 C 7.359375 -1.117188 6.890625 -0.679688 6.296875 -0.359375 C 5.710938 -0.0351562 5.050781 0.125 4.3125 0.125 Z M 4.3125 -1.28125 C 4.726562 -1.28125 5.101562 -1.375 5.4375 -1.5625 C 5.78125 -1.757812 6.050781 -2.03125 6.25 -2.375 C 6.445312 -2.726562 6.546875 -3.128906 6.546875 -3.578125 C 6.546875 -4.015625 6.445312 -4.40625 6.25 -4.75 C 6.050781 -5.101562 5.78125 -5.375 5.4375 -5.5625 C 5.101562 -5.757812 4.726562 -5.859375 4.3125 -5.859375 C 3.882812 -5.859375 3.5 -5.757812 3.15625 -5.5625 C 2.820312 -5.375 2.554688 -5.101562 2.359375 -4.75 C 2.171875 -4.40625 2.078125 -4.015625 2.078125 -3.578125 C 2.078125 -3.128906 2.171875 -2.726562 2.359375 -2.375 C 2.554688 -2.03125 2.820312 -1.757812 3.15625 -1.5625 C 3.5 -1.375 3.882812 -1.28125 4.3125 -1.28125 Z M 4.3125 -1.28125 "/></g></g></g><g fill="#07416b" fill-opacity="1"><g transform="translate(201.311523, 220.82897)"><g><path d="M 11.640625 -7.140625 L 9.3125 0 L 7.53125 0 L 5.953125 -4.84375 L 4.34375 0 L 2.578125 0 L 0.21875 -7.140625 L 1.9375 -7.140625 L 3.546875 -2.125 L 5.234375 -7.140625 L 6.765625 -7.140625 L 8.390625 -2.078125 L 10.0625 -7.140625 Z M 11.640625 -7.140625 "/></g></g></g><g fill="#07416b" fill-opacity="1"><g transform="translate(214.922361, 220.82897)"><g><path d="M 6.375 -1.328125 L 6.375 0 L 0.84375 0 L 0.84375 -7.140625 L 6.25 -7.140625 L 6.25 -5.8125 L 2.484375 -5.8125 L 2.484375 -4.265625 L 5.8125 -4.265625 L 5.8125 -2.984375 L 2.484375 -2.984375 L 2.484375 -1.328125 Z M 6.375 -1.328125 "/></g></g></g><g fill="#07416b" fill-opacity="1"><g transform="translate(223.51331, 220.82897)"><g><path d="M 5.390625 0 L 4.015625 -1.984375 L 2.5 -1.984375 L 2.5 0 L 0.84375 0 L 0.84375 -7.140625 L 3.9375 -7.140625 C 4.570312 -7.140625 5.117188 -7.035156 5.578125 -6.828125 C 6.046875 -6.617188 6.40625 -6.316406 6.65625 -5.921875 C 6.914062 -5.535156 7.046875 -5.078125 7.046875 -4.546875 C 7.046875 -4.015625 6.914062 -3.554688 6.65625 -3.171875 C 6.40625 -2.796875 6.046875 -2.503906 5.578125 -2.296875 L 7.171875 0 Z M 5.359375 -4.546875 C 5.359375 -4.953125 5.226562 -5.257812 4.96875 -5.46875 C 4.71875 -5.6875 4.34375 -5.796875 3.84375 -5.796875 L 2.5 -5.796875 L 2.5 -3.3125 L 3.84375 -3.3125 C 4.34375 -3.3125 4.71875 -3.414062 4.96875 -3.625 C 5.226562 -3.84375 5.359375 -4.148438 5.359375 -4.546875 Z M 5.359375 -4.546875 "/></g></g></g><g fill="#07416b" fill-opacity="1"><g transform="translate(232.757253, 220.82897)"><g><path d="M 0.84375 -7.140625 L 2.5 -7.140625 L 2.5 0 L 0.84375 0 Z M 0.84375 -7.140625 "/></g></g></g><g fill="#07416b" fill-opacity="1"><g transform="translate(237.848562, 220.82897)"><g><path d="M 7.390625 -7.140625 L 7.390625 0 L 6.046875 0 L 2.484375 -4.34375 L 2.484375 0 L 0.84375 0 L 0.84375 -7.140625 L 2.21875 -7.140625 L 5.765625 -2.8125 L 5.765625 -7.140625 Z M 7.390625 -7.140625 "/></g></g></g><g fill="#07416b" fill-opacity="1"><g transform="translate(247.837328, 220.82897)"><g><path d="M 5.671875 -3.6875 L 7.1875 -3.6875 L 7.1875 -0.78125 C 6.789062 -0.488281 6.335938 -0.265625 5.828125 -0.109375 C 5.328125 0.046875 4.816406 0.125 4.296875 0.125 C 3.554688 0.125 2.890625 -0.03125 2.296875 -0.34375 C 1.703125 -0.664062 1.234375 -1.109375 0.890625 -1.671875 C 0.554688 -2.234375 0.390625 -2.867188 0.390625 -3.578125 C 0.390625 -4.273438 0.554688 -4.90625 0.890625 -5.46875 C 1.234375 -6.03125 1.703125 -6.46875 2.296875 -6.78125 C 2.898438 -7.101562 3.578125 -7.265625 4.328125 -7.265625 C 4.953125 -7.265625 5.519531 -7.15625 6.03125 -6.9375 C 6.539062 -6.726562 6.96875 -6.425781 7.3125 -6.03125 L 6.25 -5.046875 C 5.738281 -5.585938 5.125 -5.859375 4.40625 -5.859375 C 3.945312 -5.859375 3.539062 -5.757812 3.1875 -5.5625 C 2.832031 -5.375 2.554688 -5.109375 2.359375 -4.765625 C 2.171875 -4.421875 2.078125 -4.023438 2.078125 -3.578125 C 2.078125 -3.128906 2.171875 -2.726562 2.359375 -2.375 C 2.554688 -2.03125 2.832031 -1.757812 3.1875 -1.5625 C 3.539062 -1.375 3.941406 -1.28125 4.390625 -1.28125 C 4.859375 -1.28125 5.285156 -1.382812 5.671875 -1.59375 Z M 5.671875 -3.6875 "/></g></g></g><g fill="#07416b" fill-opacity="1"><g transform="translate(257.44857, 220.82897)"><g/></g></g><g fill="#07416b" fill-opacity="1"><g transform="translate(262.080739, 220.82897)"><g><path d="M 2.5 -5.8125 L 2.5 -3.921875 L 5.8125 -3.921875 L 5.8125 -2.609375 L 2.5 -2.609375 L 2.5 0 L 0.84375 0 L 0.84375 -7.140625 L 6.25 -7.140625 L 6.25 -5.8125 Z M 2.5 -5.8125 "/></g></g></g><g fill="#07416b" fill-opacity="1"><g transform="translate(270.345191, 220.82897)"><g><path d="M 4.015625 0.125 C 2.992188 0.125 2.195312 -0.15625 1.625 -0.71875 C 1.0625 -1.289062 0.78125 -2.097656 0.78125 -3.140625 L 0.78125 -7.140625 L 2.4375 -7.140625 L 2.4375 -3.203125 C 2.4375 -1.921875 2.96875 -1.28125 4.03125 -1.28125 C 4.550781 -1.28125 4.945312 -1.4375 5.21875 -1.75 C 5.488281 -2.0625 5.625 -2.546875 5.625 -3.203125 L 5.625 -7.140625 L 7.25 -7.140625 L 7.25 -3.140625 C 7.25 -2.097656 6.960938 -1.289062 6.390625 -0.71875 C 5.828125 -0.15625 5.035156 0.125 4.015625 0.125 Z M 4.015625 0.125 "/></g></g></g><g fill="#07416b" fill-opacity="1"><g transform="translate(280.129886, 220.82897)"><g><path d="M 2.328125 -5.796875 L 0.046875 -5.796875 L 0.046875 -7.140625 L 6.265625 -7.140625 L 6.265625 -5.796875 L 3.984375 -5.796875 L 3.984375 0 L 2.328125 0 Z M 2.328125 -5.796875 "/></g></g></g><g fill="#07416b" fill-opacity="1"><g transform="translate(288.180064, 220.82897)"><g><path d="M 4.015625 0.125 C 2.992188 0.125 2.195312 -0.15625 1.625 -0.71875 C 1.0625 -1.289062 0.78125 -2.097656 0.78125 -3.140625 L 0.78125 -7.140625 L 2.4375 -7.140625 L 2.4375 -3.203125 C 2.4375 -1.921875 2.96875 -1.28125 4.03125 -1.28125 C 4.550781 -1.28125 4.945312 -1.4375 5.21875 -1.75 C 5.488281 -2.0625 5.625 -2.546875 5.625 -3.203125 L 5.625 -7.140625 L 7.25 -7.140625 L 7.25 -3.140625 C 7.25 -2.097656 6.960938 -1.289062 6.390625 -0.71875 C 5.828125 -0.15625 5.035156 0.125 4.015625 0.125 Z M 4.015625 0.125 "/></g></g></g><g fill="#07416b" fill-opacity="1"><g transform="translate(297.964766, 220.82897)"><g><path d="M 5.390625 0 L 4.015625 -1.984375 L 2.5 -1.984375 L 2.5 0 L 0.84375 0 L 0.84375 -7.140625 L 3.9375 -7.140625 C 4.570312 -7.140625 5.117188 -7.035156 5.578125 -6.828125 C 6.046875 -6.617188 6.40625 -6.316406 6.65625 -5.921875 C 6.914062 -5.535156 7.046875 -5.078125 7.046875 -4.546875 C 7.046875 -4.015625 6.914062 -3.554688 6.65625 -3.171875 C 6.40625 -2.796875 6.046875 -2.503906 5.578125 -2.296875 L 7.171875 0 Z M 5.359375 -4.546875 C 5.359375 -4.953125 5.226562 -5.257812 4.96875 -5.46875 C 4.71875 -5.6875 4.34375 -5.796875 3.84375 -5.796875 L 2.5 -5.796875 L 2.5 -3.3125 L 3.84375 -3.3125 C 4.34375 -3.3125 4.71875 -3.414062 4.96875 -3.625 C 5.226562 -3.84375 5.359375 -4.148438 5.359375 -4.546875 Z M 5.359375 -4.546875 "/></g></g></g><g fill="#07416b" fill-opacity="1"><g transform="translate(307.208709, 220.82897)"><g><path d="M 6.375 -1.328125 L 6.375 0 L 0.84375 0 L 0.84375 -7.140625 L 6.25 -7.140625 L 6.25 -5.8125 L 2.484375 -5.8125 L 2.484375 -4.265625 L 5.8125 -4.265625 L 5.8125 -2.984375 L 2.484375 -2.984375 L 2.484375 -1.328125 Z M 6.375 -1.328125 "/></g></g></g><g fill="#07416b" fill-opacity="1"><g transform="translate(315.799658, 220.82897)"><g><path d="M 3.1875 0.125 C 2.625 0.125 2.078125 0.046875 1.546875 -0.109375 C 1.023438 -0.265625 0.601562 -0.460938 0.28125 -0.703125 L 0.84375 -1.953125 C 1.15625 -1.722656 1.519531 -1.539062 1.9375 -1.40625 C 2.363281 -1.269531 2.785156 -1.203125 3.203125 -1.203125 C 3.671875 -1.203125 4.015625 -1.269531 4.234375 -1.40625 C 4.460938 -1.550781 4.578125 -1.738281 4.578125 -1.96875 C 4.578125 -2.132812 4.507812 -2.273438 4.375 -2.390625 C 4.25 -2.503906 4.082031 -2.59375 3.875 -2.65625 C 3.664062 -2.726562 3.382812 -2.804688 3.03125 -2.890625 C 2.488281 -3.015625 2.039062 -3.140625 1.6875 -3.265625 C 1.34375 -3.398438 1.046875 -3.609375 0.796875 -3.890625 C 0.546875 -4.179688 0.421875 -4.566406 0.421875 -5.046875 C 0.421875 -5.453125 0.535156 -5.820312 0.765625 -6.15625 C 0.992188 -6.5 1.332031 -6.769531 1.78125 -6.96875 C 2.226562 -7.164062 2.78125 -7.265625 3.4375 -7.265625 C 3.894531 -7.265625 4.335938 -7.207031 4.765625 -7.09375 C 5.203125 -6.988281 5.585938 -6.832031 5.921875 -6.625 L 5.40625 -5.375 C 4.75 -5.75 4.085938 -5.9375 3.421875 -5.9375 C 2.960938 -5.9375 2.625 -5.859375 2.40625 -5.703125 C 2.1875 -5.554688 2.078125 -5.363281 2.078125 -5.125 C 2.078125 -4.875 2.203125 -4.6875 2.453125 -4.5625 C 2.710938 -4.445312 3.101562 -4.332031 3.625 -4.21875 C 4.164062 -4.09375 4.609375 -3.960938 4.953125 -3.828125 C 5.304688 -3.703125 5.601562 -3.5 5.84375 -3.21875 C 6.09375 -2.945312 6.21875 -2.570312 6.21875 -2.09375 C 6.21875 -1.6875 6.101562 -1.3125 5.875 -0.96875 C 5.65625 -0.632812 5.316406 -0.367188 4.859375 -0.171875 C 4.398438 0.0234375 3.84375 0.125 3.1875 0.125 Z M 3.1875 0.125 "/></g></g></g><g clip-path="url(#94e9ef7b51)"><g clip-path="url(#b3dd693577)"><g clip-path="url(#00a296c146)"><path fill="#40b93c" d="M 354.148438 148.9375 L 326.652344 147.71875 C 321.339844 147.480469 320.445312 157.828125 326.738281 157.996094 L 343.847656 158.460938 L 342.539062 175.675781 C 342.140625 180.917969 352.367188 181.472656 352.65625 176.144531 Z M 354.148438 148.9375 " fill-opacity="1" fill-rule="nonzero"/></g></g></g><g clip-path="url(#839fcd2ad1)"><g clip-path="url(#87de233dbc)"><g clip-path="url(#c5a11215cf)"><path fill="#40b93c" d="M 370.425781 133.894531 L 342.929688 132.671875 C 337.617188 132.4375 336.722656 142.78125 343.015625 142.953125 L 360.125 143.414062 L 358.816406 160.632812 C 358.417969 165.875 368.644531 166.429688 368.9375 161.101562 Z M 370.425781 133.894531 " fill-opacity="1" fill-rule="nonzero"/></g></g></g><path fill="#f68712" d="M 271.628906 173.585938 C 271.027344 173.96875 270.246094 174.332031 269.261719 174.664062 C 267.074219 175.394531 264.769531 175.03125 262.582031 175.617188 C 262.027344 175.765625 261.203125 176.160156 260.703125 176.675781 C 260.703125 176.675781 262.230469 173.765625 266.679688 172.03125 C 267.082031 171.871094 267.507812 171.726562 267.957031 171.589844 C 270.691406 170.773438 269.921875 169.621094 268.726562 169.957031 C 268.726562 169.957031 269.714844 169.257812 271.121094 169.3125 C 273.238281 169.390625 274.648438 171.679688 271.628906 173.585938 " fill-opacity="1" fill-rule="nonzero"/><path fill="#f68712" d="M 282.5 173.605469 C 282.058594 175.46875 280.710938 177.101562 279.1875 178.417969 C 277.503906 179.871094 275.601562 180.933594 274.488281 181.46875 C 267.226562 184.960938 259.933594 183.652344 259.070312 187.210938 C 259.070312 187.210938 257.339844 184.011719 261.417969 181.742188 C 263.664062 180.492188 264.921875 179.847656 270.164062 177.9375 C 271.75 177.359375 273.683594 176.652344 275.394531 175.527344 C 276.558594 174.757812 277.621094 173.792969 278.402344 172.535156 C 279.75 170.359375 278.046875 168.199219 274.96875 168.019531 C 279.65625 167.753906 283.296875 170.234375 282.5 173.605469 " fill-opacity="1" fill-rule="nonzero"/><path fill="#3871c1" d="M 285.164062 186.53125 C 283.648438 187.703125 281.78125 188.8125 279.535156 189.808594 C 270.910156 193.644531 263.742188 192.804688 262.070312 196.472656 C 262.070312 196.472656 259.789062 191.664062 267.75 189.058594 C 274.753906 186.765625 279.574219 184.5625 282.742188 182.460938 C 289.648438 177.882812 288.699219 173.796875 285.378906 170.398438 C 285.578125 170.519531 285.769531 170.636719 285.941406 170.746094 C 291.566406 174.710938 291.933594 181.28125 285.164062 186.53125 " fill-opacity="1" fill-rule="nonzero"/><g clip-path="url(#d36215c604)"><path fill="#40b93c" d="M 292.082031 189.972656 C 291.097656 191.703125 289.65625 193.144531 287.929688 194.367188 C 285.855469 195.835938 283.371094 196.980469 280.773438 197.917969 C 277.363281 199.144531 268.984375 200.167969 268.714844 202.128906 C 268.714844 202.128906 267.648438 200.132812 271.4375 198.1875 C 275.789062 195.953125 280.367188 194.210938 284.6875 191.910156 C 285.109375 191.683594 285.917969 191.277344 286.867188 190.667969 C 289.820312 188.785156 294.136719 185.003906 292.453125 179.007812 C 292.515625 179.101562 295.59375 183.816406 292.082031 189.972656 " fill-opacity="1" fill-rule="nonzero"/></g><g clip-path="url(#db8964da27)"><path fill="#40b93c" d="M 292.398438 191.789062 C 292.398438 191.789062 292.222656 194.375 288.59375 197.710938 C 288.582031 197.71875 288.574219 197.730469 288.5625 197.738281 C 286.621094 199.519531 284.277344 200.804688 282.28125 201.648438 C 279.203125 202.945312 276.496094 202.96875 276.464844 202.976562 C 279.855469 201.910156 284.808594 199.09375 288.335938 196.265625 C 290.3125 194.675781 291.84375 193.082031 292.398438 191.789062 " fill-opacity="1" fill-rule="nonzero"/></g><path fill="#fbc108" d="M 271.628906 173.585938 C 269.910156 172.867188 268.230469 172.371094 266.679688 172.03125 C 267.082031 171.871094 267.507812 171.726562 267.957031 171.589844 C 270.691406 170.773438 269.921875 169.621094 268.726562 169.957031 C 268.726562 169.957031 269.714844 169.257812 271.121094 169.3125 C 273.238281 169.390625 274.648438 171.679688 271.628906 173.585938 " fill-opacity="1" fill-rule="nonzero"/><path fill="#fbc108" d="M 282.5 173.605469 C 282.058594 175.46875 280.710938 177.101562 279.1875 178.417969 C 277.960938 177.285156 276.683594 176.328125 275.394531 175.527344 C 276.558594 174.757812 277.621094 173.792969 278.402344 172.535156 C 279.75 170.359375 278.046875 168.199219 274.96875 168.019531 C 279.65625 167.753906 283.296875 170.234375 282.5 173.605469 " fill-opacity="1" fill-rule="nonzero"/><path fill="#00adef" d="M 285.164062 186.53125 C 284.425781 185.03125 283.609375 183.679688 282.742188 182.460938 C 289.648438 177.882812 288.699219 173.796875 285.378906 170.398438 C 285.578125 170.519531 285.769531 170.636719 285.941406 170.746094 C 291.566406 174.710938 291.933594 181.28125 285.164062 186.53125 " fill-opacity="1" fill-rule="nonzero"/><path fill="#80cc28" d="M 292.398438 191.789062 C 292.398438 191.789062 292.222656 194.375 288.59375 197.710938 C 288.511719 197.21875 288.425781 196.738281 288.335938 196.265625 C 290.3125 194.675781 291.84375 193.082031 292.398438 191.789062 " fill-opacity="1" fill-rule="nonzero"/><path fill="#80cc28" d="M 287.929688 194.367188 C 287.617188 193.0625 287.261719 191.832031 286.867188 190.667969 C 289.820312 188.785156 294.136719 185.003906 292.453125 179.007812 C 292.515625 179.101562 295.59375 183.816406 292.082031 189.972656 C 291.097656 191.703125 289.65625 193.144531 287.929688 194.367188 " fill-opacity="1" fill-rule="nonzero"/></svg>